<svg width="267" height="45" viewBox="0 0 267 45" fill="none" xmlns="http://www.w3.org/2000/svg">
<g filter="url(#filter0_i_362_13)">
<path d="M22.5 0L27.5516 15.5471H43.8988L30.6736 25.1558L35.7252 40.7029L22.5 31.0942L9.27483 40.7029L14.3264 25.1558L1.10123 15.5471H17.4484L22.5 0Z" fill="#C4CBC6"/>
</g>
<g filter="url(#filter1_i_362_13)">
<path d="M78.5 0L83.5516 15.5471H99.8988L86.6736 25.1558L91.7252 40.7029L78.5 31.0942L65.2748 40.7029L70.3264 25.1558L57.1012 15.5471H73.4484L78.5 0Z" fill="#C4CBC6"/>
</g>
<g filter="url(#filter2_i_362_13)">
<path d="M190.5 0L195.552 15.5471H211.899L198.674 25.1558L203.725 40.7029L190.5 31.0942L177.275 40.7029L182.326 25.1558L169.101 15.5471H185.448L190.5 0Z" fill="#C4CBC6"/>
</g>
<g filter="url(#filter3_i_362_13)">
<path d="M245.399 0L250.45 15.5471H266.798L253.572 25.1558L258.624 40.7029L245.399 31.0942L232.174 40.7029L237.225 25.1558L224 15.5471H240.347L245.399 0Z" fill="#C4CBC6"/>
</g>
<g filter="url(#filter4_i_362_13)">
<path d="M134.5 0L139.552 15.5471H155.899L142.674 25.1558L147.725 40.7029L134.5 31.0942L121.275 40.7029L126.326 25.1558L113.101 15.5471H129.448L134.5 0Z" fill="#C4CBC6"/>
</g>
<defs>
<filter id="filter0_i_362_13" x="1.10126" y="0" width="42.7975" height="44.7029" filterUnits="userSpaceOnUse" color-interpolation-filters="sRGB">
<feFlood flood-opacity="0" result="BackgroundImageFix"/>
<feBlend mode="normal" in="SourceGraphic" in2="BackgroundImageFix" result="shape"/>
<feColorMatrix in="SourceAlpha" type="matrix" values="0 0 0 0 0 0 0 0 0 0 0 0 0 0 0 0 0 0 127 0" result="hardAlpha"/>
<feOffset dy="4"/>
<feGaussianBlur stdDeviation="2"/>
<feComposite in2="hardAlpha" operator="arithmetic" k2="-1" k3="1"/>
<feColorMatrix type="matrix" values="0 0 0 0 0.254902 0 0 0 0 0.32549 0 0 0 0 0.27451 0 0 0 1 0"/>
<feBlend mode="normal" in2="shape" result="effect1_innerShadow_362_13"/>
</filter>
<filter id="filter1_i_362_13" x="57.1013" y="0" width="42.7975" height="44.7029" filterUnits="userSpaceOnUse" color-interpolation-filters="sRGB">
<feFlood flood-opacity="0" result="BackgroundImageFix"/>
<feBlend mode="normal" in="SourceGraphic" in2="BackgroundImageFix" result="shape"/>
<feColorMatrix in="SourceAlpha" type="matrix" values="0 0 0 0 0 0 0 0 0 0 0 0 0 0 0 0 0 0 127 0" result="hardAlpha"/>
<feOffset dy="4"/>
<feGaussianBlur stdDeviation="2"/>
<feComposite in2="hardAlpha" operator="arithmetic" k2="-1" k3="1"/>
<feColorMatrix type="matrix" values="0 0 0 0 0.254902 0 0 0 0 0.32549 0 0 0 0 0.27451 0 0 0 1 0"/>
<feBlend mode="normal" in2="shape" result="effect1_innerShadow_362_13"/>
</filter>
<filter id="filter2_i_362_13" x="169.101" y="0" width="42.7975" height="44.7029" filterUnits="userSpaceOnUse" color-interpolation-filters="sRGB">
<feFlood flood-opacity="0" result="BackgroundImageFix"/>
<feBlend mode="normal" in="SourceGraphic" in2="BackgroundImageFix" result="shape"/>
<feColorMatrix in="SourceAlpha" type="matrix" values="0 0 0 0 0 0 0 0 0 0 0 0 0 0 0 0 0 0 127 0" result="hardAlpha"/>
<feOffset dy="4"/>
<feGaussianBlur stdDeviation="2"/>
<feComposite in2="hardAlpha" operator="arithmetic" k2="-1" k3="1"/>
<feColorMatrix type="matrix" values="0 0 0 0 0.254902 0 0 0 0 0.32549 0 0 0 0 0.27451 0 0 0 1 0"/>
<feBlend mode="normal" in2="shape" result="effect1_innerShadow_362_13"/>
</filter>
<filter id="filter3_i_362_13" x="224" y="0" width="42.7976" height="44.7029" filterUnits="userSpaceOnUse" color-interpolation-filters="sRGB">
<feFlood flood-opacity="0" result="BackgroundImageFix"/>
<feBlend mode="normal" in="SourceGraphic" in2="BackgroundImageFix" result="shape"/>
<feColorMatrix in="SourceAlpha" type="matrix" values="0 0 0 0 0 0 0 0 0 0 0 0 0 0 0 0 0 0 127 0" result="hardAlpha"/>
<feOffset dy="4"/>
<feGaussianBlur stdDeviation="2"/>
<feComposite in2="hardAlpha" operator="arithmetic" k2="-1" k3="1"/>
<feColorMatrix type="matrix" values="0 0 0 0 0.254902 0 0 0 0 0.32549 0 0 0 0 0.27451 0 0 0 1 0"/>
<feBlend mode="normal" in2="shape" result="effect1_innerShadow_362_13"/>
</filter>
<filter id="filter4_i_362_13" x="113.101" y="0" width="42.7975" height="44.7029" filterUnits="userSpaceOnUse" color-interpolation-filters="sRGB">
<feFlood flood-opacity="0" result="BackgroundImageFix"/>
<feBlend mode="normal" in="SourceGraphic" in2="BackgroundImageFix" result="shape"/>
<feColorMatrix in="SourceAlpha" type="matrix" values="0 0 0 0 0 0 0 0 0 0 0 0 0 0 0 0 0 0 127 0" result="hardAlpha"/>
<feOffset dy="4"/>
<feGaussianBlur stdDeviation="2"/>
<feComposite in2="hardAlpha" operator="arithmetic" k2="-1" k3="1"/>
<feColorMatrix type="matrix" values="0 0 0 0 0.254902 0 0 0 0 0.32549 0 0 0 0 0.27451 0 0 0 1 0"/>
<feBlend mode="normal" in2="shape" result="effect1_innerShadow_362_13"/>
</filter>
</defs>
</svg>
